# File created by Blade
# Date/Time:  Wed Apr 08 17:39:35 2015
# Frame Rate: 120.000 fps
#------------------------------------------------------
:FULLY-SPECIFIED
:DEGREES
2615
root 9.917441 36.760333 2.957893 180.779411 -63.413820 -515.109650
Spine -18.997733 -1.379171 -3.053400
Head 46.510687 -1.851353 18.877641
LeftShoulder -9.027862 20.714265 15.026474
LeftArm 20.094021 16.018526 -73.473352
LeftForeArm 15.893396 0.000000 25.036750
LeftHand -12.965480 -0.000000 -10.668945
LeftHandThumb1 -26.253704 0.000000 33.147579
RightShoulder -38.926900 -49.350152 22.789087
RightArm 54.702253 -15.163809 50.510493
RightForeArm 3.574930 -0.000000 19.550183
RightHand -5.874502 -0.000000 31.381628
RightHandThumb1 -24.326973 -0.000000 -32.862282
LeftUpLeg -31.382308 18.602621 -5.622148
LeftLeg 15.163808 -0.000000 -0.000000
LeftFoot -13.040447 11.426962 -3.223087
LeftToeBase 6.969639 -0.000000 -0.000000
RightUpLeg -77.884506 -13.367282 -0.099894
RightLeg 87.639342 -0.000000 -0.000000
RightFoot -16.710615 -25.530500 8.366045
RightToeBase -27.452487 -0.000000 0.000000
2616
root 9.916897 36.759366 2.963451 181.099727 -63.317527 -515.309121
Spine -19.199455 -1.231732 -3.163102
Head 46.502639 -1.844341 18.885279
LeftShoulder -9.049911 20.741859 15.042957
LeftArm 20.044133 15.944661 -73.542005
LeftForeArm 15.919597 0.000000 25.100893
LeftHand -13.027175 0.000000 -10.667808
LeftHandThumb1 -26.253704 0.000000 33.147579
RightShoulder -38.960149 -49.385143 22.844634
RightArm 54.757528 -15.269271 50.411473
RightForeArm 3.761596 0.000000 19.513725
RightHand -5.784269 0.000000 31.699657
RightHandThumb1 -24.326973 -0.000000 -32.862282
LeftUpLeg -31.516450 18.643935 -5.742958
LeftLeg 15.158127 -0.000000 -0.000000
LeftFoot -13.043221 11.424271 -3.278702
LeftToeBase 6.952087 -0.000000 -0.000000
RightUpLeg -78.338999 -13.663758 0.903050
RightLeg 88.210216 -0.000000 -0.000000
RightFoot -16.789759 -23.573903 9.549340
RightToeBase -27.381688 -0.000000 0.000000
2617
root 9.928922 36.764539 2.971089 181.504359 -63.270265 -515.333816
Spine -19.673860 -1.182421 -3.157688
Head 46.529571 -1.799478 18.877856
LeftShoulder -9.114936 20.840578 15.044765
LeftArm 20.014332 15.896543 -73.610361
LeftForeArm 15.938958 -0.000000 25.162143
LeftHand -13.002223 -0.000000 -10.680487
LeftHandThumb1 -26.253704 0.000000 33.147579
RightShoulder -39.015856 -49.440972 22.870739
RightArm 54.846789 -15.403041 50.260259
RightForeArm 3.906908 -0.000000 19.465133
RightHand -5.656378 0.000000 32.036807
RightHandThumb1 -24.326973 -0.000000 -32.862282
LeftUpLeg -31.953677 18.561761 -5.844854
LeftLeg 15.209480 -0.000000 -0.000000
LeftFoot -13.004728 11.480348 -3.322177
LeftToeBase 6.887603 -0.000000 -0.000000
RightUpLeg -79.057146 -13.979688 2.119791
RightLeg 88.681478 -0.000000 -0.000000
RightFoot -16.946389 -21.764048 10.648412
RightToeBase -27.795684 -0.000000 0.000000
2618
root 9.946889 36.771959 2.977847 181.857039 -63.266131 -515.232717
Spine -20.207530 -1.203718 -3.076199
Head 46.567449 -1.723404 18.844737
LeftShoulder -9.185027 20.941075 15.048788
LeftArm 19.976402 15.903639 -73.665198
LeftForeArm 15.894573 -0.000000 25.183123
LeftHand -12.871641 0.000000 -10.664412
LeftHandThumb1 -26.253704 0.000000 33.147579
RightShoulder -39.021765 -49.478865 22.837582
RightArm 54.920376 -15.544913 50.114518
RightForeArm 4.039564 -0.000000 19.397941
RightHand -5.586051 -0.000000 32.319733
RightHandThumb1 -24.326973 -0.000000 -32.862282
LeftUpLeg -32.484693 18.409042 -5.900343
LeftLeg 15.296758 -0.000000 -0.000000
LeftFoot -12.957080 11.570076 -3.391250
LeftToeBase 6.841075 -0.000000 -0.000000
RightUpLeg -79.864807 -14.321304 3.468310
RightLeg 89.104706 -0.000000 -0.000000
RightFoot -16.976558 -19.874470 11.729485
RightToeBase -28.570174 -0.000000 0.000000
2619
root 9.961561 36.777426 2.982559 182.184812 -63.212301 -515.203097
Spine -20.636569 -1.209236 -3.035102
Head 46.605317 -1.621937 18.856526
LeftShoulder -9.258436 21.026771 15.056459
LeftArm 19.905275 15.885463 -73.726217
LeftForeArm 15.848547 -0.000000 25.243831
LeftHand -12.838167 -0.000000 -10.643288
LeftHandThumb1 -26.253704 0.000000 33.147579
RightShoulder -38.979038 -49.502257 22.782176
RightArm 55.012691 -15.688000 49.964242
RightForeArm 4.187499 -0.000000 19.291644
RightHand -5.429708 -0.000000 32.567870
RightHandThumb1 -24.326973 -0.000000 -32.862282
LeftUpLeg -32.905923 18.327397 -5.965557
LeftLeg 15.364868 -0.000000 -0.000000
LeftFoot -12.918072 11.671618 -3.412992
LeftToeBase 6.780981 -0.000000 -0.000000
RightUpLeg -80.609909 -14.597326 4.791912
RightLeg 89.498709 -0.000000 -0.000000
RightFoot -16.881007 -17.777443 13.015473
RightToeBase -28.696978 -0.000000 0.000000
2620
root 9.980407 36.784396 2.987420 182.522554 -63.169436 -515.138973
Spine -21.101020 -1.250242 -2.968040
Head 46.644212 -1.505413 18.866499
LeftShoulder -9.340836 21.111148 15.058578
LeftArm 19.822566 15.887995 -73.778112
LeftForeArm 15.849763 -0.000000 25.318405
LeftHand -12.859817 -0.000000 -10.626742
LeftHandThumb1 -26.253704 0.000000 33.147579
RightShoulder -38.924097 -49.509850 22.697299
RightArm 55.106729 -15.824210 49.850717
RightForeArm 4.371711 -0.000000 19.152534
RightHand -5.241846 -0.000000 32.806052
RightHandThumb1 -24.326973 -0.000000 -32.862282
LeftUpLeg -33.386769 18.217737 -6.019615
LeftLeg 15.451615 -0.000000 -0.000000
LeftFoot -12.873994 11.784802 -3.439970
LeftToeBase 6.724415 -0.000000 -0.000000
RightUpLeg -81.389002 -14.842084 6.079504
RightLeg 89.883037 -0.000000 -0.000000
RightFoot -16.775487 -14.859870 15.442938
RightToeBase -28.681023 -0.000000 0.000000
2621
root 9.985404 36.784765 2.990366 182.755598 -63.049113 -515.229599
Spine -21.293282 -1.224062 -2.975552
Head 46.684324 -1.372597 18.890659
LeftShoulder -9.452845 21.242290 14.978748
LeftArm 19.835312 16.290986 -73.493275
LeftForeArm 15.408489 0.000000 25.522865
LeftHand -13.005766 -0.000000 -10.414037
LeftHandThumb1 -26.253704 0.000000 33.147579
RightShoulder -38.834939 -49.509083 22.613679
RightArm 55.201098 -15.903226 49.792059
RightForeArm 4.622782 -0.000000 18.998696
RightHand -5.066298 -0.000000 32.959324
RightHandThumb1 -24.326973 -0.000000 -32.862282
LeftUpLeg -33.557463 18.219430 -6.074057
LeftLeg 15.482191 -0.000000 -0.000000
LeftFoot -12.875440 11.902043 -3.435266
LeftToeBase 6.689001 -0.000000 -0.000000
RightUpLeg -81.966569 -15.074276 7.328598
RightLeg 90.214541 -0.000000 -0.000000
RightFoot -15.955132 -12.226131 17.030932
RightToeBase -29.353294 -0.000000 0.000000
2622
root 9.992640 36.786670 2.992475 182.996947 -62.952238 -515.306560
Spine -21.501382 -1.230616 -2.984756
Head 46.717147 -1.252936 18.931135
LeftShoulder -9.514368 21.306005 14.948803
LeftArm 19.766082 16.377172 -73.435165
LeftForeArm 15.269350 -0.000000 25.588223
LeftHand -13.044480 -0.000000 -10.380111
LeftHandThumb1 -26.253704 0.000000 33.147579
RightShoulder -38.738858 -49.491635 22.525424
RightArm 55.245355 -15.955993 49.789421
RightForeArm 4.891979 -0.000000 18.889657
RightHand -4.901567 -0.000000 33.072649
RightHandThumb1 -24.326973 -0.000000 -32.862282
LeftUpLeg -33.751707 18.187802 -6.121003
LeftLeg 15.513219 -0.000000 -0.000000
LeftFoot -12.873493 12.021329 -3.475389
LeftToeBase 6.682289 -0.000000 -0.000000
RightUpLeg -82.580310 -15.299570 8.586086
RightLeg 90.495156 -0.000000 -0.000000
RightFoot -14.672791 -9.336569 18.875169
RightToeBase -30.247444 -0.000000 0.000000
2623
root 10.003309 36.789637 2.994561 183.184574 -62.873105 -515.295088
Spine -21.734034 -1.261990 -2.941333
Head 46.758280 -1.132698 18.970466
LeftShoulder -9.542311 21.373231 14.938047
LeftArm 19.678685 16.385138 -73.451941
LeftForeArm 15.229993 0.000000 25.605650
LeftHand -13.057009 0.000000 -10.397007
LeftHandThumb1 -26.253704 0.000000 33.147579
RightShoulder -38.697031 -49.498870 22.492494
RightArm 55.292249 -15.941957 49.814950
RightForeArm 5.156337 -0.000000 18.847086
RightHand -4.753982 -0.000000 33.169696
RightHandThumb1 -24.326973 -0.000000 -32.862282
LeftUpLeg -33.981491 18.135543 -6.132035
LeftLeg 15.548582 -0.000000 -0.000000
LeftFoot -12.871678 12.137797 -3.509669
LeftToeBase 6.670621 -0.000000 -0.000000
RightUpLeg -83.215667 -15.491330 9.882181
RightLeg 90.710762 -0.000000 -0.000000
RightFoot -13.103246 -6.237164 20.981400
RightToeBase -31.132787 -0.000000 0.000000
2624
root 10.018714 36.795219 2.995513 183.424449 -62.809728 -515.239586
Spine -22.070929 -1.324585 -2.868663
Head 46.804068 -1.014637 18.985834
LeftShoulder -9.584922 21.470429 14.924602
LeftArm 19.630839 16.418777 -73.435395
LeftForeArm 15.248542 -0.000000 25.589986
LeftHand -12.998266 0.000000 -10.507536
LeftHandThumb1 -26.253704 0.000000 33.147579
RightShoulder -38.605286 -49.495942 22.368185
RightArm 55.267765 -15.958739 49.929687
RightForeArm 5.465097 -0.000000 18.839401
RightHand -4.552237 -0.000000 33.184634
RightHandThumb1 -24.326973 -0.000000 -32.862282
LeftUpLeg -34.330082 18.103745 -6.167151
LeftLeg 15.599474 -0.000000 -0.000000
LeftFoot -12.863624 12.203681 -3.567923
LeftToeBase 6.685899 -0.000000 -0.000000
RightUpLeg -83.940753 -15.654933 11.232869
RightLeg 90.846084 -0.000000 -0.000000
RightFoot -11.414387 -3.358853 23.185657
RightToeBase -31.791610 -0.000000 0.000000
2625
root 10.035387 36.801995 2.996366 183.640778 -62.767450 -515.147388
Spine -22.414057 -1.416987 -2.766555
Head 46.862137 -0.900569 18.994793
LeftShoulder -9.629569 21.547251 14.892892
LeftArm 19.575500 16.542839 -73.372805
LeftForeArm 15.209047 -0.000000 25.570717
LeftHand -12.954633 -0.000000 -10.522366
LeftHandThumb1 -26.253704 0.000000 33.147579
RightShoulder -38.563396 -49.522310 22.295938
RightArm 55.245006 -15.909790 50.073270
RightForeArm 5.695270 -0.000000 18.925904
RightHand -4.410182 -0.000000 33.124664
RightHandThumb1 -24.326973 -0.000000 -32.862282
LeftUpLeg -34.740948 18.172570 -6.255995
LeftLeg 15.713365 -0.000000 -0.000000
LeftFoot -12.848654 12.152986 -3.588145
LeftToeBase 6.803749 -0.000000 -0.000000
RightUpLeg -84.679923 -15.803964 12.629192
RightLeg 90.949138 -0.000000 -0.000000
RightFoot -9.724155 -0.614591 25.373944
RightToeBase -32.574621 -0.000000 0.000000
